<svg width="48.000000" height="48.000000" viewBox="0 0 48 48" fill="none" xmlns="http://www.w3.org/2000/svg" xmlns:xlink="http://www.w3.org/1999/xlink">
	<desc>
			Created with Pixso.
	</desc>
	<g clip-path="url(#clip5_1)">
		<path d="M12.3255 24.9435C12.3015 24.897 12.2625 24.858 12.2415 24.81C11.829 23.9519 11.9641 22.902 12.6945 22.2119L29.253 6.55049C30.156 5.69698 31.5795 5.73746 32.4345 6.63903C33.288 7.54205 33.249 8.96549 32.346 9.82054L17.4885 23.8755L32.2875 38.139C33.1815 39.0014 33.2085 40.425 32.346 41.3205C31.905 41.7795 31.3155 42.009 30.726 42.009C30.1635 42.009 29.601 41.7991 29.1645 41.379L12.756 25.5646C12.7244 25.533 12.7125 25.4896 12.681 25.4566C12.6569 25.4341 12.6315 25.4176 12.6075 25.3936C12.48 25.26 12.4125 25.0965 12.3255 24.9435Z" fill-rule="evenodd" fill="#000000"/>
	</g>
	<defs>
		<clipPath id="clip5_1">
			<rect width="48.000000" height="48.000000" transform="matrix(-1 0 0 1 48 0)" fill="white"/>
		</clipPath>
	</defs>
</svg>
