<svg width="48.000000" height="48.000000" viewBox="0 0 48 48" fill="none" xmlns="http://www.w3.org/2000/svg" xmlns:xlink="http://www.w3.org/1999/xlink">
	<desc>
			Created with Pixso.
	</desc>
	<g clip-path="url(#clip5_1)">
		<path d="M35.6745 24.9435C35.6985 24.897 35.7374 24.858 35.7585 24.81C36.171 23.9519 36.0359 22.902 35.3055 22.2119L18.747 6.55049C17.844 5.69698 16.4205 5.73746 15.5655 6.63903C14.712 7.54205 14.751 8.96549 15.654 9.82054L30.5115 23.8755L15.7125 38.139C14.8185 39.0014 14.7915 40.425 15.654 41.3205C16.095 41.7795 16.6845 42.009 17.274 42.009C17.8365 42.009 18.399 41.7991 18.8355 41.379L35.244 25.5646C35.2756 25.533 35.2875 25.4896 35.319 25.4566C35.3431 25.4341 35.3685 25.4176 35.3925 25.3936C35.52 25.26 35.5875 25.0965 35.6745 24.9435Z" fill-rule="evenodd" fill="#000000"/>
	</g>
	<defs>
		<clipPath id="clip5_1">
			<rect width="48.000000" height="48.000000" fill="white"/>
		</clipPath>
	</defs>
</svg>
